<?xml version="1.0" encoding="utf-8"?>
<!-- Generator: Adobe Illustrator 26.0.3, SVG Export Plug-In . SVG Version: 6.00 Build 0)  -->
<svg version="1.1" id="Layer_1" xmlns="http://www.w3.org/2000/svg" xmlns:xlink="http://www.w3.org/1999/xlink" x="0px" y="0px"
	 viewBox="0 0 1450 1300" style="enable-background:new 0 0 1450 1300;" xml:space="preserve">
<style type="text/css">
	.st0{fill:black;}
</style>
<path class="st0" d="M759.5,935.97c-72.12,67.47-169,108.8-275.56,108.8c-222.82,0-403.45-180.63-403.45-403.45
	s180.63-403.45,403.45-403.45c91.7,0,176.23,30.61,243.99,82.14L598.12,517.4c-30.91-29.45-72.73-47.54-118.79-47.54
	c-95.14,0-172.26,77.12-172.26,172.26s77.12,172.26,172.26,172.26c50.94,0,96.71-22.12,128.24-57.26L759.5,935.97z M1369.5,428.61
	c0,25.31-20.52,45.84-45.84,45.84c-19.4,0-35.95-12.07-42.64-29.1c0,0,0,0,0,0c-0.57-1.25-2.68-5.56-5.36-6.68
	c-3.1-1.29-22.5-1.42-22.5-1.42l-257.04,0.02c0,0-19.4,0.13-22.5,1.42c-2.56,1.07-4.59,5.03-5.26,6.47
	c-4.63,11.92-14.09,21.43-26,26.11c-1.25,0.57-5.56,2.68-6.68,5.36c-0.48,1.16-0.8,4.58-1.01,8.42c0.21,3.84,0.53,7.27,1.01,8.42
	c1.07,2.56,5.03,4.59,6.47,5.26c11.92,4.63,21.43,14.09,26.11,26c0.57,1.25,2.68,5.56,5.36,6.68c3.1,1.29,22.5,1.42,22.5,1.42
	l118.07-0.01c0,0,19.4-0.13,22.5-1.42c2.68-1.12,4.79-5.43,5.36-6.68c6.69-17.03,23.24-29.1,42.64-29.1
	c25.31,0,45.84,20.52,45.84,45.84c0,19.4-12.07,35.95-29.1,42.64c0,0,0,0,0,0c-1.25,0.57-5.56,2.68-6.68,5.36
	c-1.29,3.1-1.42,22.5-1.42,22.5l0,111.3c0,0,0.13,19.4,1.42,22.5c1.12,2.68,5.43,4.79,6.68,5.36c17.03,6.69,29.1,23.24,29.1,42.64
	c0,25.31-20.52,45.84-45.84,45.84c-19.4,0-35.95-12.07-42.64-29.1c0,0,0,0,0,0c-0.57-1.25-2.68-5.56-5.36-6.68
	c-3.1-1.29-22.5-1.42-22.5-1.42L996,802.07c0,0-19.4,0.13-22.5,1.42c-2.56,1.07-4.59,5.03-5.26,6.47
	c-4.63,11.92-14.09,21.43-26,26.11c-1.25,0.57-5.56,2.68-6.68,5.36c-1.29,3.1-1.42,22.5-1.42,22.5L934,1068.81
	c0,0,0.13,19.4,1.42,22.5c1.12,2.68,5.43,4.79,6.68,5.36c17.03,6.69,29.1,23.24,29.1,42.64c0,25.31-20.52,45.84-45.84,45.84
	c-19.4,0-35.95-12.07-42.64-29.1c0,0,0,0,0,0c-0.57-1.25-2.68-5.56-5.36-6.68c-3.1-1.29-22.5-1.42-22.5-1.42l-160.01,0
	c0,0-19.4,0.13-22.5,1.42c-2.68,1.12-4.79,5.43-5.36,6.68c-6.69,17.03-23.24,29.1-42.64,29.1c-25.31,0-45.84-20.52-45.84-45.84
	c0-25.31,20.52-45.84,45.84-45.84c19.4,0,35.95,12.07,42.64,29.1c0.57,1.25,2.68,5.56,5.36,6.68c3.1,1.29,22.5,1.42,22.5,1.42
	l160.01,0c0,0,19.4-0.13,22.5-1.42c2.56-1.07,4.59-5.03,5.26-6.47c4.63-11.92,14.09-21.43,26-26.11c1.25-0.57,5.56-2.68,6.68-5.36
	c1.29-3.1,1.42-22.5,1.42-22.5l0.15-204.89c0,0-0.13-19.4-1.42-22.5c-1.12-2.68-5.43-4.79-6.68-5.36
	c-17.03-6.69-29.1-23.24-29.1-42.64c0-25.31,20.52-45.84,45.84-45.84c19.4,0,35.95,12.07,42.64,29.1c0,0,0,0,0,0
	c0.57,1.25,2.68,5.56,5.36,6.68c3.1,1.29,22.5,1.42,22.5,1.42l118.2,0.33c0,0,19.4-0.13,22.5-1.42c2.56-1.07,4.59-5.03,5.26-6.47
	c4.63-11.92,14.09-21.43,26-26.11c1.25-0.57,5.56-2.68,6.68-5.36c1.29-3.1,1.42-22.5,1.42-22.5l0-111.3c0,0-0.13-19.4-1.42-22.5
	c-1.07-2.56-5.03-4.59-6.47-5.26c-11.92-4.63-21.43-14.09-26.11-26c-0.57-1.25-2.68-5.56-5.36-6.68c-3.1-1.29-22.5-1.42-22.5-1.42
	l-118.07,0.01c0,0-19.4,0.13-22.5,1.42c-2.68,1.12-4.79,5.43-5.36,6.68c-6.69,17.03-23.24,29.1-42.64,29.1
	c-25.31,0-45.84-20.52-45.84-45.84c0-19.4,12.07-35.95,29.1-42.64c0,0,0,0,0,0c1.25-0.57,5.56-2.68,6.68-5.36
	c0.48-1.16,0.8-4.58,1.01-8.42c-0.21-3.84-0.53-7.27-1.01-8.42c-1.12-2.68-5.43-4.79-6.68-5.36c-17.03-6.69-29.1-23.24-29.1-42.64
	c0-25.31,20.52-45.84,45.84-45.84c19.4,0,35.95,12.07,42.64,29.1c0,0,0,0,0,0c0.57,1.25,2.68,5.56,5.36,6.68
	c3.1,1.29,22.5,1.42,22.5,1.42l257.04-0.02c0,0,19.4-0.13,22.5-1.42c2.56-1.07,4.59-5.03,5.26-6.47c4.63-11.92,14.09-21.43,26-26.11
	c1.25-0.57,5.56-2.68,6.68-5.36c1.29-3.1,1.42-22.5,1.42-22.5l0-126.93c0,0-0.13-19.4-1.42-22.5c-1.07-2.56-5.03-4.59-6.47-5.26
	c-11.92-4.63-21.43-14.09-26.11-26c-0.57-1.25-2.68-5.56-5.36-6.68c-3.1-1.29-22.5-1.42-22.5-1.42l-558.32,0
	c0,0-19.4,0.13-22.5,1.42c-2.68,1.12-4.79,5.43-5.36,6.68c-6.69,17.03-23.24,29.1-42.64,29.1c-25.31,0-45.84-20.52-45.84-45.84
	c0-25.31,20.52-45.84,45.84-45.84c19.4,0,35.95,12.07,42.64,29.1c0.57,1.25,2.68,5.56,5.36,6.68c3.1,1.29,22.5,1.42,22.5,1.42
	l558.32,0c0,0,19.4-0.13,22.5-1.42c2.68-1.12,4.79-5.43,5.36-6.68c6.69-17.03,23.24-29.1,42.64-29.1
	c25.31,0,45.84,20.52,45.84,45.84c0,19.4-12.07,35.95-29.1,42.64c0,0,0,0,0,0c-1.25,0.57-5.56,2.68-6.68,5.36
	c-1.29,3.1-1.42,22.5-1.42,22.5l0,126.93c0,0,0.13,19.4,1.42,22.5c1.12,2.68,5.43,4.79,6.68,5.36
	C1357.43,392.67,1369.5,409.21,1369.5,428.61z M648.81,160.7c0-13.5-10.94-24.44-24.44-24.44c-13.5,0-24.44,10.94-24.44,24.44
	c0,13.5,10.94,24.44,24.44,24.44C637.86,185.14,648.81,174.2,648.81,160.7z M648.81,1139.3c0-13.5-10.94-24.44-24.44-24.44
	c-13.5,0-24.44,10.94-24.44,24.44c0,13.5,10.94,24.44,24.44,24.44C637.86,1163.74,648.81,1152.79,648.81,1139.3z M925.11,1114.86
	c-13.5,0-24.44,10.94-24.44,24.44c0,13.5,10.94,24.44,24.44,24.44c13.5,0,24.44-10.94,24.44-24.44
	C949.55,1125.8,938.61,1114.86,925.11,1114.86z M950.19,793.42c0-13.5-10.94-24.44-24.44-24.44c-13.5,0-24.44,10.94-24.44,24.44
	c0,13.5,10.94,24.44,24.44,24.44C939.25,817.87,950.19,806.92,950.19,793.42z M1184.44,769.31c-13.5,0-24.44,10.94-24.44,24.44
	c0,13.5,10.94,24.44,24.44,24.44c13.5,0,24.44-10.94,24.44-24.44C1208.88,780.25,1197.94,769.31,1184.44,769.31z M1160.25,541.72
	c0,13.5,10.94,24.44,24.44,24.44c13.5,0,24.44-10.94,24.44-24.44c0-13.5-10.94-24.44-24.44-24.44
	C1171.19,517.27,1160.25,528.22,1160.25,541.72z M925.64,516.78c-13.5,0-24.44,10.94-24.44,24.44c0,13.5,10.94,24.44,24.44,24.44
	c13.5,0,24.44-10.94,24.44-24.44C950.08,527.73,939.14,516.78,925.64,516.78z M950.33,428.64c0-13.5-10.94-24.44-24.44-24.44
	c-13.5,0-24.44,10.94-24.44,24.44c0,13.5,10.94,24.44,24.44,24.44C939.39,453.08,950.33,442.13,950.33,428.64z M1323.66,185.39
	c13.5,0,24.44-10.94,24.44-24.44c0-13.5-10.94-24.44-24.44-24.44c-13.5,0-24.44,10.94-24.44,24.44
	C1299.22,174.45,1310.17,185.39,1323.66,185.39z M1347.86,428.61c0-13.5-10.94-24.44-24.44-24.44c-13.5,0-24.44,10.94-24.44,24.44
	c0,13.5,10.94,24.44,24.44,24.44C1336.91,453.05,1347.86,442.11,1347.86,428.61z"/>
</svg>
